<?xml version="1.0" encoding="utf-8"?>
<!-- Generator: Adobe Illustrator 18.0.0, SVG Export Plug-In . SVG Version: 6.00 Build 0)  -->
<!DOCTYPE svg PUBLIC "-//W3C//DTD SVG 1.1//EN" "http://www.w3.org/Graphics/SVG/1.1/DTD/svg11.dtd">
<svg width="19px" height="19px" version="1.1" id="Layer_1" xmlns="http://www.w3.org/2000/svg" xmlns:xlink="http://www.w3.org/1999/xlink" x="0px" y="0px"
	 viewBox="0 0 19 19" enable-background="new 0 0 19 19" xml:space="preserve">
<path fill-rule="evenodd" clip-rule="evenodd" fill="#FFFFFF" d="M1.8,9.5c0-4.3,3.4-7.7,7.7-7.7c4.2,0,7.7,3.4,7.7,7.7
	c0,2.8-1.5,5.3-3.8,6.6c0.5-1.7,0.7-3.4,0.6-5.4c0.5,0.1,0.8,0.2,1.3,0.4c-0.6-1.4-1.2-2.8-2-4.1c-0.7,1.4-1.7,2.7-2.7,3.7l1.6-0.1
	c-1.4,2.5-3.3,3.6-5.8,4c-0.6-2.7-0.2-7.3,3-9.4l0.3,1.5c0.6-1,1.8-2.3,2.7-3.2C11,3.1,9.4,2.9,7.8,3.2C8,3.4,8.4,3.7,8.6,3.9
	c-3.5,1.5-5.5,3.9-6.7,6.8C1.8,10.3,1.8,9.9,1.8,9.5L1.8,9.5z M9.5,19c5.2,0,9.5-4.3,9.5-9.5C19,4.3,14.7,0,9.5,0S0,4.3,0,9.5
	C0,14.7,4.3,19,9.5,19L9.5,19z"/>
</svg>
